<svg width="37" height="36" viewBox="0 0 37 36" fill="none" xmlns="http://www.w3.org/2000/svg">
<rect x="0.25" y="0.25" width="36.5" height="35.5" rx="9.75" stroke="#8B63DD" stroke-width="0.5"/>
<path d="M20.6415 11.2053C20.624 8.88794 22.4978 7 24.8153 7C27.1241 7 28.9943 8.87445 28.9891 11.1833L28.9579 24.9589C28.9528 27.2231 27.1158 29.0559 24.8516 29.0559C22.5959 29.0559 20.7625 27.2363 20.7455 24.9806L20.6415 11.2053Z" fill="#A07FE2"/>
<path d="M11.1954 11.243C11.1885 8.95371 13.0425 7.09424 15.3318 7.09424C17.6199 7.09424 19.4733 8.95183 19.4682 11.2399L19.4373 25.059C19.4322 27.3199 17.5979 29.1501 15.3369 29.1501C13.0772 29.1501 11.2434 27.3218 11.2366 25.062L11.1954 11.243Z" fill="#A07FE2"/>
<path d="M15.6148 10.3932C15.6148 10.3932 16.8909 12.363 19.9071 12.363C22.9232 12.363 24.6633 10.3932 24.6633 10.3932V25.757C24.6633 25.757 22.5752 23.7873 19.9071 23.7873C17.2389 23.7873 15.6148 25.757 15.6148 25.757V10.3932Z" fill="#A07FE2"/>
<path d="M16.4621 18.6406C16.4621 21.5297 14.12 23.8718 11.2309 23.8718C11.2309 18.6406 11.2309 18.6406 11.2309 18.6406C11.2309 18.6406 11.2309 18.6406 11.2309 13.4094C14.12 13.4094 16.4621 15.7515 16.4621 18.6406Z" fill="#D2BBFF"/>
<path d="M5.9997 18.6406C5.9997 21.5297 8.34178 23.8718 11.2309 23.8718C11.2309 18.6406 11.2309 18.6406 11.2309 18.6406C11.2309 18.6406 11.2309 18.6406 11.2309 13.4094C8.34178 13.4094 5.9997 15.7515 5.9997 18.6406Z" fill="#8B63DD"/>
</svg>
